# xmcd
#
# Track frame offsets: 
#        150
#        19125
#        31490
#        42590
#        66227
#        87560
#        108220
#        119742
#        135995
#        163630
#        195902
#        220912
#        246625
#        268717
#        275452
#        282075
#        289987
#        294280
#        309760
#
# Disc length: 4276 seconds
#
# Revision: 1
# Processed by: cddbd v1.5.2PL0 Copyright (c) Steve Scherf et al.
# Submitted via: ExactAudioCopy v1.0b3
#
DISCID=2310b213
DTITLE=Mitsutaka Shiraishi - Piano Works by Great Conductors
DYEAR=2002
DGENRE=Classical
TTITLE0=Berceuse
TTITLE1=1re Marche Militaire
TTITLE2=Tarantelle Op.7
TTITLE3=Drei Kleine Klavierstuecke Op.6 - I. Sketch
TTITLE4=Drei Kleine Klavierstuecke Op.6 - II. Sarabande
TTITLE5=Drei Kleine Klavierstuecke Op.6 - III. Capricho
TTITLE6=Drei Klavierstücke - I. Leicht bewegt
TTITLE7=Drei Klavierstücke - II. Scherzo (Schnell, aber ausdrucksvoll)
TTITLE8=Drei Klavierstücke - III. Breit und ausdrucksvoll
TTITLE9=Sonate für Klavier Op.1 - I. Allegro con fuoco
TTITLE10=Sonate für Klavier Op.1 - II. Adagio
TTITLE11=Sonate für Klavier Op.1 - III. Allegro appassionata
TTITLE12=Little Agagio
TTITLE13=Prelude Nr.1 - Moderato
TTITLE14=Prelude Nr.4
TTITLE15=Prelude Nr.7 - Adagio
TTITLE16=Prelude Nr.8 - 'To the Powerless'
TTITLE17=Tango
TTITLE18=Fox-trott
EXTD=
EXTT0=
EXTT1=
EXTT2=
EXTT3=
EXTT4=
EXTT5=
EXTT6=
EXTT7=
EXTT8=
EXTT9=
EXTT10=
EXTT11=
EXTT12=
EXTT13=
EXTT14=
EXTT15=
EXTT16=
EXTT17=
EXTT18=
PLAYORDER=
